HIERARCHY
ROOT joint_0
{
	OFFSET 0.000000 0.000000 0.000000
	CHANNELS 6 Xposition Yposition Zposition Zrotation Yrotation Xrotation 
	JOINT joint_1
	{
		OFFSET 7.566162 2.250183 114.799927
		CHANNELS 3 Zrotation Yrotation Xrotation
		JOINT joint_2
		{
			OFFSET -5.201660 -0.414001 104.936035
			CHANNELS 3 Zrotation Yrotation Xrotation
			JOINT joint_3
			{
				OFFSET -6.923584 -0.419739 104.718018
				CHANNELS 3 Zrotation Yrotation Xrotation
				JOINT joint_4
				{
					OFFSET 3.108887 2.881104 149.449951
					CHANNELS 3 Zrotation Yrotation Xrotation
					JOINT joint_5
					{
						OFFSET 19.988770 5.920349 90.786987
						CHANNELS 3 Zrotation Yrotation Xrotation
						End Site
						{
							OFFSET 0.000000 0.000000 0.000000
						}
					}
				}
				JOINT joint_6
				{
					OFFSET 9.283936 -30.015930 84.410034
					CHANNELS 3 Zrotation Yrotation Xrotation
					JOINT joint_7
					{
						OFFSET 47.243164 -155.716736 -23.241089
						CHANNELS 3 Zrotation Yrotation Xrotation
						JOINT joint_8
						{
							OFFSET 31.323730 -15.356873 -268.798950
							CHANNELS 3 Zrotation Yrotation Xrotation
							JOINT joint_9
							{
								OFFSET 28.122314 -2.114624 -262.450012
								CHANNELS 3 Zrotation Yrotation Xrotation
								End Site
								{
									OFFSET 0.000000 0.000000 0.000000
								}
							}
						}
					}
				}
				JOINT joint_10
				{
					OFFSET -5.580566 33.311218 83.498047
					CHANNELS 3 Zrotation Yrotation Xrotation
					JOINT joint_11
					{
						OFFSET -22.773438 160.515381 -27.138062
						CHANNELS 3 Zrotation Yrotation Xrotation
						JOINT joint_12
						{
							OFFSET 27.004395 30.848877 -267.937988
							CHANNELS 3 Zrotation Yrotation Xrotation
							JOINT joint_13
							{
								OFFSET 32.625000 14.824585 -261.518005
								CHANNELS 3 Zrotation Yrotation Xrotation
								End Site
								{
									OFFSET 0.000000 0.000000 0.000000
								}
							}
						}
					}
				}
			}
		}
	}
	JOINT joint_14
	{
		OFFSET 20.623535 -83.447632 -106.174011
		CHANNELS 3 Zrotation Yrotation Xrotation
		JOINT joint_15
		{
			OFFSET 0.661865 -23.563843 -459.915039
			CHANNELS 3 Zrotation Yrotation Xrotation
			JOINT joint_16
			{
				OFFSET -23.461670 -28.727966 -444.760971
				CHANNELS 3 Zrotation Yrotation Xrotation
				JOINT joint_17
				{
					OFFSET 178.992920 54.047363 -80.113001
					CHANNELS 3 Zrotation Yrotation Xrotation
					End Site
					{
						OFFSET 0.000000 0.000000 0.000000
					}
				}
			}
		}
	}
	JOINT joint_18
	{
		OFFSET -19.571533 84.686279 -105.380005
		CHANNELS 3 Zrotation Yrotation Xrotation
		JOINT joint_19
		{
			OFFSET -22.949951 3.639404 -459.933044
			CHANNELS 3 Zrotation Yrotation Xrotation
			JOINT joint_20
			{
				OFFSET -33.690674 4.092651 -445.010971
				CHANNELS 3 Zrotation Yrotation Xrotation
				JOINT joint_21
				{
					OFFSET 187.419678 18.953857 -76.759001
					CHANNELS 3 Zrotation Yrotation Xrotation
					End Site
					{
						OFFSET 0.000000 0.000000 0.000000
					}
				}
			}
		}
	}
}
MOTION
Frames: 17
Frame Time: 0.016667
-2969.295166 900.568054 1134.277954 -1.144554 8.628107 -3.395791 -0.979391 6.234664 3.669580 -1.378445 -0.998219 -0.688663 -1.254111 1.162150 0.695612 -0.171824 -6.314485 2.712847 0.000000 0.000000 0.000000 5.634653 8.402829 -7.117095 -9.946005 6.303337 -15.237061 -1.340736 -56.045267 49.157918 0.000000 0.000000 0.000000 7.268175 8.255389 -1.551759 4.131931 7.984569 5.236490 -5.405242 -61.402559 -27.245921 0.000000 0.000000 0.000000 -2.637787 -18.380977 -2.672616 -5.117482 27.426534 -8.265912 -5.678386 -4.921170 -0.745940 0.000000 0.000000 0.000000 -2.714081 -2.897384 2.685609 -2.158525 18.872357 -5.144338 -3.423863 9.035601 -2.155560 0.000000 0.000000 0.000000 
-2958.947266 903.634155 1132.032959 -1.111550 8.112328 -3.377930 -0.828146 6.207793 3.910474 -1.107388 -0.974753 -0.716898 -0.969010 1.143034 0.706937 -0.186880 -5.538659 2.517181 0.000000 0.000000 0.000000 5.587897 8.084265 -7.023452 -10.123759 6.072159 -15.247594 -1.391347 -54.554108 49.345905 0.000000 0.000000 0.000000 7.020837 8.198597 -1.559186 3.838713 7.900080 5.060451 -5.477961 -60.757204 -26.048915 0.000000 0.000000 0.000000 -1.256361 -18.213526 -3.682884 -3.654611 24.335466 -7.297726 -3.464266 -4.659625 0.027564 0.000000 0.000000 0.000000 -2.490918 -2.391114 2.362886 -1.980913 20.006725 -5.040930 -3.338887 9.144418 -2.125263 0.000000 0.000000 0.000000 
-2948.187988 906.230164 1128.932983 -0.975979 7.586837 -3.295015 -0.662361 6.022347 4.035761 -0.840090 -0.925312 -0.729259 -0.694978 1.110134 0.690563 -0.204951 -4.728413 2.325106 0.000000 0.000000 0.000000 5.315155 7.968126 -6.888481 -10.001404 6.079876 -14.891731 -1.314320 -53.240747 48.578436 0.000000 0.000000 0.000000 6.745177 8.244417 -1.535868 3.437829 7.909671 4.871299 -5.505554 -59.389226 -24.176241 0.000000 0.000000 0.000000 0.594738 -17.946416 -4.864358 -1.625360 21.810924 -6.381126 -0.783741 -4.672766 1.102810 0.000000 0.000000 0.000000 -2.248988 -1.825953 2.011362 -1.761179 21.139465 -4.928710 -3.171011 9.136583 -2.052189 0.000000 0.000000 0.000000 
-2937.248047 908.259766 1125.218994 -0.480008 7.086160 -3.182878 -0.602670 5.808635 4.091848 -0.688082 -0.901367 -0.708287 -0.538963 1.080908 0.686300 -0.225655 -4.001895 2.179413 0.000000 0.000000 0.000000 4.941966 7.999360 -6.699143 -9.877720 6.155705 -14.524958 -1.261911 -52.391251 47.873544 0.000000 0.000000 0.000000 6.519415 8.382529 -1.512512 3.039841 8.007696 4.788875 -5.534266 -58.170702 -22.296313 0.000000 0.000000 0.000000 2.129399 -17.516542 -5.972585 0.115042 19.527018 -5.537084 1.313213 -4.443358 1.888117 0.000000 0.000000 0.000000 -2.150811 -1.441353 1.900037 -1.652569 22.581703 -5.073493 -3.138698 9.068107 -2.021456 0.000000 0.000000 0.000000 
-2925.842529 909.502014 1120.927002 0.502592 6.682259 -3.148377 -0.709777 5.492077 4.236389 -0.710269 -0.914080 -0.722574 -0.550085 1.068330 0.702890 -0.251958 -3.398969 2.101696 0.000000 0.000000 0.000000 4.490375 8.202886 -6.373830 -9.822599 6.247178 -14.265040 -1.261415 -52.157803 47.552416 0.000000 0.000000 0.000000 6.422860 8.660671 -1.509945 2.669704 8.238980 4.933146 -5.585873 -57.426597 -20.572692 0.000000 0.000000 0.000000 3.165960 -16.955435 -6.859400 1.333724 17.579082 -4.510398 2.686329 -3.756479 2.249573 0.000000 0.000000 0.000000 -2.253411 -1.304765 2.210885 -1.712218 24.344267 -5.507974 -3.292104 8.961092 -2.051724 0.000000 0.000000 0.000000 
-2914.256348 910.178772 1116.020020 1.750490 6.332083 -3.189285 -0.890971 5.085072 4.453736 -0.819327 -0.917123 -0.785222 -0.641876 1.051568 0.731137 -0.281777 -2.876395 2.067343 0.000000 0.000000 0.000000 3.937762 8.545181 -6.017478 -9.762015 6.426109 -13.962225 -1.277075 -52.367811 47.294998 0.000000 0.000000 0.000000 6.380287 9.037463 -1.483111 2.293503 8.556341 5.178983 -5.642686 -56.830118 -18.838651 0.000000 0.000000 0.000000 3.977700 -16.370608 -7.546441 2.293375 16.061348 -3.487930 3.713698 -2.972350 2.444724 0.000000 0.000000 0.000000 -2.488385 -1.379039 2.848461 -1.878529 26.419603 -6.188235 -3.553966 8.827284 -2.115184 0.000000 0.000000 0.000000 
-2903.577637 910.857544 1110.626953 3.003923 5.896261 -3.209882 -1.054113 4.852853 4.596453 -0.900844 -0.893381 -0.817024 -0.707576 1.017875 0.775225 -0.308245 -2.440966 2.049270 0.000000 0.000000 0.000000 3.354046 8.891892 -5.894017 -9.765632 6.710597 -13.579314 -1.355341 -52.812600 47.143386 0.000000 0.000000 0.000000 6.225645 9.385843 -1.375076 1.920261 8.836307 5.294904 -5.705327 -56.299189 -17.258284 0.000000 0.000000 0.000000 4.419362 -15.902664 -8.019898 2.821662 14.939735 -3.009154 4.210699 -2.138384 2.403512 0.000000 0.000000 0.000000 -2.835641 -1.748759 3.686435 -2.130693 29.093958 -7.261773 -3.966464 8.783927 -2.236871 0.000000 0.000000 0.000000 
-2893.930176 911.743408 1104.493042 4.214990 5.266323 -3.283331 -1.167908 4.966500 4.855655 -0.907528 -0.841349 -0.889224 -0.693360 0.929346 0.845750 -0.329197 -2.106563 2.041571 0.000000 0.000000 0.000000 2.713528 9.253693 -6.191266 -9.822969 7.212020 -12.982270 -1.509993 -53.557548 47.027613 0.000000 0.000000 0.000000 5.867948 9.699278 -1.074346 1.501942 9.039922 5.011801 -5.784576 -55.699261 -15.838093 0.000000 0.000000 0.000000 4.242664 -15.615521 -8.072367 2.636893 14.152846 -3.398373 3.870601 -0.947691 1.898454 0.000000 0.000000 0.000000 -3.310412 -2.280631 4.749372 -2.481465 32.293845 -8.729479 -4.551766 9.368741 -2.475509 0.000000 0.000000 0.000000 
-2885.189941 912.630249 1097.871948 5.423787 4.536841 -3.417919 -1.282037 5.290243 5.199140 -0.869971 -0.783822 -0.991045 -0.628966 0.826275 0.923348 -0.344736 -1.865901 2.039588 0.000000 0.000000 0.000000 2.041325 9.621711 -6.726882 -9.936892 7.820104 -12.298332 -1.722328 -54.541649 47.017159 0.000000 0.000000 0.000000 5.389354 9.988282 -0.702626 1.088918 9.213598 4.606487 -5.871049 -55.185114 -14.568839 0.000000 0.000000 0.000000 3.703316 -15.472534 -7.851785 1.998854 13.844522 -4.215260 3.062496 0.409935 1.144180 0.000000 0.000000 0.000000 -3.919596 -3.052640 6.067072 -2.947618 35.987879 -10.557434 -5.314670 10.341521 -2.807999 0.000000 0.000000 0.000000 
-2878.079102 913.465332 1091.651001 6.527993 3.860612 -3.483562 -1.444398 5.650940 5.310739 -0.796215 -0.743373 -1.003309 -0.527172 0.803725 0.968882 -0.352014 -1.676661 2.015683 0.000000 0.000000 0.000000 1.496222 9.841581 -7.211435 -10.217838 8.224563 -11.890374 -2.004953 -55.385332 47.374879 0.000000 0.000000 0.000000 4.887406 10.162962 -0.562818 0.832274 9.372228 4.666788 -5.943254 -55.108129 -13.597436 0.000000 0.000000 0.000000 3.381416 -15.455968 -7.790272 1.487030 14.406903 -4.896165 2.547968 1.029384 0.735766 0.000000 0.000000 0.000000 -4.650889 -4.453405 7.616164 -3.542443 40.552397 -12.865840 -6.351853 10.717588 -3.167395 0.000000 0.000000 0.000000 
-2873.083252 914.159241 1086.057983 7.599764 3.292606 -3.516090 -1.710615 6.066275 5.339618 -0.691436 -0.761799 -1.003954 -0.369860 0.904599 0.972461 -0.341935 -1.544079 1.930639 0.000000 0.000000 0.000000 1.156472 9.872080 -7.605462 -10.828228 8.333481 -11.966103 -2.446969 -56.069180 48.406673 0.000000 0.000000 0.000000 4.332917 10.126019 -0.879775 0.835258 9.510894 5.620178 -5.997615 -55.620012 -13.151389 0.000000 0.000000 0.000000 3.538070 -15.614114 -7.963257 1.304762 16.443544 -5.235974 2.707195 0.212589 1.035852 0.000000 0.000000 0.000000 -5.720217 -6.793562 9.725723 -4.512725 46.441021 -16.092101 -8.254247 10.422716 -3.732643 0.000000 0.000000 0.000000 
-2869.717041 914.800354 1080.864990 8.534810 2.668784 -3.629465 -2.079139 6.760247 5.452056 -0.515719 -0.913854 -1.074900 -0.089658 1.083537 0.936665 -0.323579 -1.457168 1.824305 0.000000 0.000000 0.000000 0.940936 9.750137 -7.946276 -11.637876 8.237086 -12.337575 -2.982261 -56.602926 49.837232 0.000000 0.000000 0.000000 3.760056 9.979820 -1.436696 0.993064 9.632017 7.050837 -6.039501 -56.556721 -12.994183 0.000000 0.000000 0.000000 3.888391 -15.767158 -8.092426 1.198380 19.297788 -5.393669 3.172226 -1.252106 1.650004 0.000000 0.000000 0.000000 -6.900628 -9.509203 12.237863 -5.719927 52.985530 -19.624656 -10.779867 10.060367 -4.470103 0.000000 0.000000 0.000000 
-2867.235107 915.595337 1076.276978 9.016601 1.913509 -3.775590 -2.505738 7.653710 5.315199 -0.250970 -1.157233 -1.096645 0.318484 1.296429 0.851781 -0.321022 -1.346697 1.783107 0.000000 0.000000 0.000000 0.803339 9.443979 -8.066885 -12.307415 7.907129 -12.762290 -3.382338 -56.659013 51.024481 0.000000 0.000000 0.000000 3.376825 9.948309 -1.867138 1.137964 9.769614 8.262060 -6.063805 -57.794134 -12.574856 0.000000 0.000000 0.000000 4.226480 -15.680360 -8.091649 1.080076 21.629299 -5.483716 3.528678 -2.369549 2.113286 0.000000 0.000000 0.000000 -7.588038 -11.933945 14.420358 -6.601917 59.188957 -22.175209 -12.609945 9.145567 -4.869041 0.000000 0.000000 0.000000 
-2865.333008 916.285767 1072.071045 8.992557 1.035206 -3.899721 -3.030600 8.535239 4.673531 0.087291 -1.368860 -0.984565 0.823182 1.544529 0.696105 -0.346913 -1.168407 1.848608 0.000000 0.000000 0.000000 0.754147 8.858593 -7.834785 -12.701937 7.226710 -13.193808 -3.534649 -55.815945 51.844148 0.000000 0.000000 0.000000 3.303733 10.201790 -2.013313 1.199838 9.997580 9.046031 -6.059614 -59.516103 -11.462649 0.000000 0.000000 0.000000 4.480718 -15.371080 -7.909492 0.854017 23.192447 -5.664470 3.489549 -3.022324 2.282780 0.000000 0.000000 0.000000 -7.573152 -14.162067 16.073402 -6.937285 65.370193 -23.466735 -13.234166 6.832432 -4.550110 0.000000 0.000000 0.000000 
-2864.316406 917.129028 1068.468994 8.574121 0.105035 -4.012384 -3.615176 9.400763 3.733177 0.482942 -1.552856 -0.807212 1.405886 1.795100 0.486975 -0.387314 -0.972840 1.971582 0.000000 0.000000 0.000000 0.763819 8.092686 -7.378247 -12.887378 6.312718 -13.648087 -3.513693 -54.437841 52.337498 0.000000 0.000000 0.000000 3.427803 10.577613 -2.017352 1.237135 10.243812 9.581784 -6.040703 -61.521362 -10.089233 0.000000 0.000000 0.000000 4.716092 -14.924262 -7.617421 0.646917 24.317614 -5.870199 3.269525 -3.508172 2.336740 0.000000 0.000000 0.000000 -7.041225 -16.337579 17.405057 -6.913323 71.294073 -23.755207 -13.309777 3.634674 -3.556578 0.000000 0.000000 0.000000 
-2864.362305 919.108582 1066.343018 7.815200 -0.689003 -4.099915 -4.022180 10.143344 2.790108 0.869591 -1.710496 -0.643064 1.938049 1.974496 0.285614 -0.426643 -0.828550 2.099947 0.000000 0.000000 0.000000 0.755774 7.412528 -6.942520 -12.838397 5.504222 -13.951878 -3.370285 -53.437179 52.113816 0.000000 0.000000 0.000000 3.600135 10.807086 -1.956506 1.273182 10.339472 9.742422 -6.049846 -63.144734 -9.212738 0.000000 0.000000 0.000000 4.965019 -14.393845 -7.424050 0.674562 24.668966 -5.937195 3.134626 -3.738873 2.353450 0.000000 0.000000 0.000000 -6.090901 -18.230579 18.316398 -6.555523 75.430981 -23.032385 -12.747112 0.589140 -2.006086 0.000000 0.000000 0.000000 
-2865.844727 922.585632 1066.463989 6.735146 -1.201248 -4.097463 -4.138797 10.642526 1.831725 1.208784 -1.811053 -0.486442 2.330027 2.084400 0.110721 -0.464250 -0.787046 2.245298 0.000000 0.000000 0.000000 0.737020 6.920887 -6.572715 -12.573108 4.919887 -14.038900 -3.141339 -53.313260 50.912914 0.000000 0.000000 0.000000 3.810829 10.740948 -1.863695 1.294509 10.171117 9.463325 -6.123546 -64.065093 -9.054119 0.000000 0.000000 0.000000 5.276604 -13.798844 -7.521488 1.019862 23.933117 -5.745246 3.189250 -3.656874 2.354359 0.000000 0.000000 0.000000 -4.577361 -19.914767 18.682827 -5.725047 77.433494 -21.304059 -10.543188 -2.049724 0.182432 0.000000 0.000000 0.000000 
